<svg width="1949" height="114" viewBox="0 0 1949 114" fill="none" xmlns="http://www.w3.org/2000/svg">
<g filter="url(#filter0_d_341_49)">
<line x1="28.9984" y1="81" x2="1934" y2="80.0005" stroke="white" stroke-width="6"/>
</g>
<rect x="19" width="1920" height="84" fill="white"/>
<path d="M1680.38 36.5137C1680.54 36.4775 1680.7 36.5144 1680.82 36.6172C1680.94 36.7201 1681.01 36.8744 1681 37.0312L1680.99 37.0977L1677.49 54.5977C1677.45 54.7785 1677.32 54.9251 1677.14 54.9785C1676.97 55.0318 1676.78 54.9838 1676.65 54.8535C1675.69 53.8955 1674.07 52.7664 1672.36 52.4414C1671.51 52.2808 1670.65 52.3183 1669.82 52.6562C1669 52.9937 1668.17 53.6462 1667.42 54.7773C1667.29 54.9606 1667.07 55.0422 1666.86 54.9785C1666.64 54.9147 1666.5 54.7203 1666.5 54.5V50.5C1666.5 50.3765 1666.55 50.2569 1666.63 50.165L1673.86 42.1279L1664.22 46.9473C1664.15 46.9835 1664.07 47.0014 1663.99 47L1663.91 46.9922L1658.41 45.9922C1658.19 45.952 1658.02 45.7697 1658 45.5469C1657.98 45.3241 1658.11 45.114 1658.32 45.0332L1680.32 36.5332L1680.38 36.5137Z" fill="#111111" stroke="#111111" stroke-linejoin="round"/>
<path d="M743.936 53.3848C742.849 53.959 741.495 54.2461 739.875 54.2461C737.783 54.2461 736.108 53.5728 734.851 52.2261C733.593 50.8794 732.964 49.1123 732.964 46.9248C732.964 44.5732 733.671 42.6729 735.086 41.2236C736.501 39.7744 738.296 39.0498 740.47 39.0498C741.864 39.0498 743.02 39.2515 743.936 39.6548V41.4902C742.883 40.9023 741.721 40.6084 740.449 40.6084C738.761 40.6084 737.39 41.1724 736.337 42.3003C735.292 43.4282 734.769 44.9355 734.769 46.8223C734.769 48.6133 735.257 50.042 736.235 51.1084C737.219 52.168 738.508 52.6978 740.101 52.6978C741.577 52.6978 742.855 52.3696 743.936 51.7134V53.3848ZM755.625 40.8545H751.38V54H749.657V40.8545H745.422V39.2959H755.625V40.8545ZM769.324 54H767.417L765.858 49.8779H759.624L758.158 54H756.24L761.88 39.2959H763.664L769.324 54ZM765.294 48.3296L762.987 42.0645C762.912 41.8594 762.837 41.5312 762.762 41.0801H762.721C762.652 41.4971 762.574 41.8252 762.485 42.0645L760.198 48.3296H765.294ZM780.193 40.8545H775.948V54H774.226V40.8545H769.991V39.2959H780.193V40.8545ZM782.511 54V39.2959H784.233V45.5303H787.022C788.485 45.5303 789.624 45.8857 790.437 46.5967C791.25 47.3008 791.657 48.3057 791.657 49.6113C791.657 50.9648 791.23 52.0347 790.375 52.8208C789.521 53.6069 788.355 54 786.879 54H782.511ZM784.233 47.0889V52.4414H786.653C787.672 52.4414 788.458 52.2021 789.012 51.7236C789.565 51.2451 789.842 50.5752 789.842 49.7139C789.842 47.9639 788.779 47.0889 786.653 47.0889H784.233ZM806.464 54H804.741V43.377C804.741 42.4199 804.775 41.7466 804.844 41.3569H804.782C804.652 41.6919 804.495 41.9995 804.311 42.2798L796.743 54H794.61V39.2959H796.333V49.6523C796.333 50.7598 796.306 51.481 796.251 51.8159H796.292C796.442 51.5151 796.634 51.187 796.866 50.8315L804.249 39.2959H806.464V54Z" fill="#2D2D2D"/>
<path d="M856.182 54H854.459V40.8545H850.378C849.906 44.5596 849.534 47.1777 849.26 48.709C848.987 50.2402 848.71 51.3682 848.43 52.0928C848.149 52.8174 847.77 53.3574 847.292 53.7129C846.813 54.0615 846.239 54.2358 845.569 54.2358C845.029 54.2358 844.561 54.1641 844.164 54.0205V52.4004C844.513 52.5986 844.899 52.6978 845.323 52.6978C845.747 52.6978 846.143 52.4448 846.512 51.939C846.888 51.4331 847.268 50.1172 847.65 47.9912C848.04 45.8652 848.471 42.9668 848.942 39.2959H856.182V54ZM870.168 39.2959L865.625 49.5601C864.819 51.3784 864.04 52.6157 863.288 53.272C862.536 53.9282 861.715 54.2563 860.827 54.2563C860.095 54.2563 859.483 54.1504 858.991 53.9385V52.1953C859.579 52.5439 860.146 52.7183 860.693 52.7183C861.247 52.7183 861.756 52.5063 862.221 52.0825C862.686 51.6519 863.188 50.8965 863.729 49.8164L858.745 39.2959H860.704L864.231 47.1504C864.292 47.2803 864.419 47.5981 864.61 48.104H864.631C864.651 48.0425 864.792 47.7109 865.051 47.1094L868.322 39.2959H870.168ZM881.868 54H880.145V47.3862C878.58 48.2134 877.124 48.627 875.777 48.627C874.492 48.627 873.497 48.2954 872.793 47.6323C872.096 46.9624 871.747 46.0259 871.747 44.8228V39.2959H873.47V44.7407C873.47 46.3198 874.311 47.1094 875.992 47.1094C877.209 47.1094 878.593 46.7334 880.145 45.9814V39.2959H881.868V54ZM901.904 54H885.856V39.2959H887.579V52.4414H893.024V39.2959H894.736V52.4414H900.181V39.2959H901.904V54ZM913.583 54H905.79V39.2959H913.255V40.8545H907.513V45.7456H912.824V47.2939H907.513V52.4414H913.583V54ZM924.206 54H916.413V39.2959H923.878V40.8545H918.136V45.7456H923.447V47.2939H918.136V52.4414H924.206V54Z" fill="#2D2D2D"/>
<path d="M972.981 54H971.259V47.2939H963.65V54H961.928V39.2959H963.65V45.7456H971.259V39.2959H972.981V54ZM982.764 54.2461C980.679 54.2461 979.007 53.5591 977.75 52.1851C976.499 50.811 975.873 49.0234 975.873 46.8223C975.873 44.457 976.512 42.5703 977.791 41.1621C979.069 39.7539 980.809 39.0498 983.01 39.0498C985.04 39.0498 986.674 39.7334 987.911 41.1006C989.155 42.4678 989.777 44.2554 989.777 46.4634C989.777 48.8628 989.142 50.7598 987.87 52.1543C986.599 53.5488 984.896 54.2461 982.764 54.2461ZM982.887 40.6084C981.342 40.6084 980.087 41.1655 979.124 42.2798C978.16 43.394 977.678 44.8569 977.678 46.6685C977.678 48.48 978.146 49.9395 979.083 51.0469C980.026 52.1475 981.253 52.6978 982.764 52.6978C984.377 52.6978 985.648 52.1714 986.578 51.1187C987.508 50.0659 987.973 48.5928 987.973 46.6992C987.973 44.7578 987.521 43.2573 986.619 42.1978C985.717 41.1382 984.473 40.6084 982.887 40.6084ZM992.669 54V39.2959H996.853C998.124 39.2959 999.132 39.6069 999.877 40.229C1000.62 40.8511 1001 41.6611 1001 42.6592C1001 43.4932 1000.77 44.2178 1000.32 44.833C999.867 45.4482 999.245 45.8857 998.452 46.1455V46.1865C999.443 46.3027 1000.24 46.6787 1000.83 47.3145C1001.43 47.9434 1001.72 48.7637 1001.72 49.7754C1001.72 51.0332 1001.27 52.0518 1000.37 52.8311C999.467 53.6104 998.329 54 996.955 54H992.669ZM994.392 40.8545V45.6021H996.155C997.099 45.6021 997.84 45.3765 998.38 44.9253C998.92 44.4673 999.19 43.8247 999.19 42.9976C999.19 41.5688 998.25 40.8545 996.371 40.8545H994.392ZM994.392 47.1504V52.4414H996.729C997.741 52.4414 998.524 52.2021 999.078 51.7236C999.638 51.2451 999.918 50.5889 999.918 49.7549C999.918 48.0186 998.736 47.1504 996.371 47.1504H994.392ZM1010.63 54.2461C1008.55 54.2461 1006.88 53.5591 1005.62 52.1851C1004.37 50.811 1003.74 49.0234 1003.74 46.8223C1003.74 44.457 1004.38 42.5703 1005.66 41.1621C1006.94 39.7539 1008.68 39.0498 1010.88 39.0498C1012.91 39.0498 1014.54 39.7334 1015.78 41.1006C1017.03 42.4678 1017.65 44.2554 1017.65 46.4634C1017.65 48.8628 1017.01 50.7598 1015.74 52.1543C1014.47 53.5488 1012.77 54.2461 1010.63 54.2461ZM1010.76 40.6084C1009.21 40.6084 1007.96 41.1655 1006.99 42.2798C1006.03 43.394 1005.55 44.8569 1005.55 46.6685C1005.55 48.48 1006.02 49.9395 1006.95 51.0469C1007.9 52.1475 1009.12 52.6978 1010.63 52.6978C1012.25 52.6978 1013.52 52.1714 1014.45 51.1187C1015.38 50.0659 1015.84 48.5928 1015.84 46.6992C1015.84 44.7578 1015.39 43.2573 1014.49 42.1978C1013.59 41.1382 1012.34 40.6084 1010.76 40.6084ZM1030.55 53.3848C1029.46 53.959 1028.11 54.2461 1026.49 54.2461C1024.39 54.2461 1022.72 53.5728 1021.46 52.2261C1020.2 50.8794 1019.58 49.1123 1019.58 46.9248C1019.58 44.5732 1020.28 42.6729 1021.7 41.2236C1023.11 39.7744 1024.91 39.0498 1027.08 39.0498C1028.48 39.0498 1029.63 39.2515 1030.55 39.6548V41.4902C1029.49 40.9023 1028.33 40.6084 1027.06 40.6084C1025.37 40.6084 1024 41.1724 1022.95 42.3003C1021.9 43.4282 1021.38 44.9355 1021.38 46.8223C1021.38 48.6133 1021.87 50.042 1022.85 51.1084C1023.83 52.168 1025.12 52.6978 1026.71 52.6978C1028.19 52.6978 1029.47 52.3696 1030.55 51.7134V53.3848ZM1042.24 40.8545H1037.99V54H1036.27V40.8545H1032.03V39.2959H1042.24V40.8545ZM1056.41 54H1054.68V43.377C1054.68 42.4199 1054.72 41.7466 1054.79 41.3569H1054.73C1054.6 41.6919 1054.44 41.9995 1054.25 42.2798L1046.69 54H1044.55V39.2959H1046.28V49.6523C1046.28 50.7598 1046.25 51.481 1046.19 51.8159H1046.24C1046.39 51.5151 1046.58 51.187 1046.81 50.8315L1054.19 39.2959H1056.41V54Z" fill="#2D2D2D"/>
<path d="M1103.62 40.8545H1099.38V54H1097.66V40.8545H1093.42V39.2959H1103.62V40.8545ZM1113.73 54H1105.94V39.2959H1113.41V40.8545H1107.66V45.7456H1112.97V47.2939H1107.66V52.4414H1113.73V54ZM1126.57 53.3848C1125.48 53.959 1124.13 54.2461 1122.51 54.2461C1120.42 54.2461 1118.74 53.5728 1117.49 52.2261C1116.23 50.8794 1115.6 49.1123 1115.6 46.9248C1115.6 44.5732 1116.31 42.6729 1117.72 41.2236C1119.14 39.7744 1120.93 39.0498 1123.11 39.0498C1124.5 39.0498 1125.66 39.2515 1126.57 39.6548V41.4902C1125.52 40.9023 1124.36 40.6084 1123.08 40.6084C1121.4 40.6084 1120.03 41.1724 1118.97 42.3003C1117.93 43.4282 1117.4 44.9355 1117.4 46.8223C1117.4 48.6133 1117.89 50.042 1118.87 51.1084C1119.85 52.168 1121.14 52.6978 1122.74 52.6978C1124.21 52.6978 1125.49 52.3696 1126.57 51.7134V53.3848ZM1138.26 40.8545H1134.02V54H1132.29V40.8545H1128.06V39.2959H1138.26V40.8545ZM1153.16 54H1151.44V39.2959H1153.16V54ZM1140.58 54V39.2959H1142.3V45.5303H1145.09C1146.55 45.5303 1147.69 45.8857 1148.5 46.5967C1149.32 47.3008 1149.72 48.3057 1149.72 49.6113C1149.72 50.9648 1149.3 52.0347 1148.44 52.8208C1147.59 53.6069 1146.42 54 1144.95 54H1140.58ZM1142.3 47.0889V52.4414H1144.72C1145.74 52.4414 1146.53 52.2021 1147.08 51.7236C1147.63 51.2451 1147.91 50.5752 1147.91 49.7139C1147.91 47.9639 1146.85 47.0889 1144.72 47.0889H1142.3Z" fill="#2D2D2D"/>
<path d="M189.224 65V27.9091H197.066V43.2127H212.985V27.9091H220.809V65H212.985V49.6783H197.066V65H189.224ZM261.359 46.4545C261.359 50.4993 260.592 53.9403 259.059 56.7777C257.538 59.6151 255.461 61.7823 252.829 63.2795C250.209 64.7646 247.263 65.5071 243.991 65.5071C240.695 65.5071 237.737 64.7585 235.116 63.2614C232.496 61.7642 230.426 59.5969 228.904 56.7596C227.383 53.9222 226.623 50.4872 226.623 46.4545C226.623 42.4098 227.383 38.9688 228.904 36.1314C230.426 33.294 232.496 31.1328 235.116 29.6477C237.737 28.1506 240.695 27.402 243.991 27.402C247.263 27.402 250.209 28.1506 252.829 29.6477C255.461 31.1328 257.538 33.294 259.059 36.1314C260.592 38.9688 261.359 42.4098 261.359 46.4545ZM253.408 46.4545C253.408 43.8345 253.016 41.625 252.231 39.826C251.458 38.027 250.366 36.6626 248.953 35.733C247.54 34.8033 245.886 34.3384 243.991 34.3384C242.095 34.3384 240.441 34.8033 239.028 35.733C237.616 36.6626 236.517 38.027 235.732 39.826C234.96 41.625 234.573 43.8345 234.573 46.4545C234.573 49.0746 234.96 51.2841 235.732 53.0831C236.517 54.8821 237.616 56.2464 239.028 57.1761C240.441 58.1058 242.095 58.5707 243.991 58.5707C245.886 58.5707 247.54 58.1058 248.953 57.1761C250.366 56.2464 251.458 54.8821 252.231 53.0831C253.016 51.2841 253.408 49.0746 253.408 46.4545ZM293.678 27.9091V65H286.071V27.9091H293.678ZM263.668 65L275.295 45.4403L264.157 27.9091H273.81L282.141 43.1765H297.807L305.921 27.9091H315.537L304.671 45.386L316.081 65H306.718L298.876 50.4208H281L272.959 65H263.668Z" fill="#FF8A4F"/>
<rect x="1185" y="35.6353" width="21.8578" height="20.9471" rx="4" transform="rotate(-9.57367 1185 35.6353)" stroke="#2D2D2D" stroke-width="2"/>
<circle cx="1197.59" cy="44.5942" r="1.82148" transform="rotate(-9.57367 1197.59 44.5942)" fill="#2D2D2D"/>
<circle cx="1191.3" cy="40.1148" r="1.82148" transform="rotate(-9.57367 1191.3 40.1148)" fill="#2D2D2D"/>
<circle cx="1202.07" cy="38.2969" r="1.82148" transform="rotate(-9.57367 1202.07 38.2969)" fill="#2D2D2D"/>
<circle cx="1203.89" cy="49.0737" r="1.82148" transform="rotate(-9.57367 1203.89 49.0737)" fill="#2D2D2D"/>
<circle cx="1193.11" cy="50.8911" r="1.82148" transform="rotate(-9.57367 1193.11 50.8911)" fill="#2D2D2D"/>
<rect x="1606" y="34" width="23" height="23" rx="6" fill="#111111"/>
<mask id="path-16-inside-1_341_49" fill="white">
<path d="M1615.5 51C1612.3 51 1609.83 44.3333 1609.5 41H1612.5C1612.5 44.2 1614.5 46.6667 1615.5 47.5V41H1616H1618.5V41.5V44.5H1619.5L1622 41H1625L1622 46.5L1625.5 51H1622L1619.5 47.5H1618.5V51H1615.5Z"/>
</mask>
<path d="M1615.5 51C1612.3 51 1609.83 44.3333 1609.5 41H1612.5C1612.5 44.2 1614.5 46.6667 1615.5 47.5V41H1616H1618.5V41.5V44.5H1619.5L1622 41H1625L1622 46.5L1625.5 51H1622L1619.5 47.5H1618.5V51H1615.5Z" fill="white"/>
<path d="M1609.5 41V40H1608.4L1608.5 41.0995L1609.5 41ZM1618.5 51V52H1619.5V51H1618.5ZM1618.5 47.5V46.5H1617.5V47.5H1618.5ZM1619.5 47.5L1620.31 46.9188L1620.01 46.5H1619.5V47.5ZM1622 51L1621.19 51.5812L1621.49 52H1622V51ZM1625.5 51V52H1627.54L1626.29 50.3861L1625.5 51ZM1622 46.5L1621.12 46.0211L1620.81 46.5966L1621.21 47.1139L1622 46.5ZM1625 41L1625.88 41.4789L1626.68 40H1625V41ZM1622 41V40H1621.49L1621.19 40.4188L1622 41ZM1619.5 44.5V45.5H1620.01L1620.31 45.0812L1619.5 44.5ZM1618.5 44.5H1617.5V45.5H1618.5V44.5ZM1618.5 41H1619.5V40H1618.5V41ZM1615.5 41V40H1614.5V41H1615.5ZM1615.5 47.5L1614.86 48.2682L1616.5 49.635V47.5H1615.5ZM1612.5 41H1613.5V40H1612.5V41ZM1609.5 41L1608.5 41.0995C1608.68 42.8981 1609.42 45.5173 1610.53 47.7029C1611.09 48.7979 1611.77 49.838 1612.56 50.6182C1613.34 51.3937 1614.34 52 1615.5 52V51V50C1615.06 50 1614.55 49.773 1613.96 49.1943C1613.38 48.6203 1612.82 47.7854 1612.32 46.7971C1611.31 44.816 1610.65 42.4352 1610.5 40.9005L1609.5 41ZM1615.5 51V52H1618.5V51V50H1615.5V51ZM1618.5 51H1619.5V47.5H1618.5H1617.5V51H1618.5ZM1618.5 47.5V48.5H1619.5V47.5V46.5H1618.5V47.5ZM1619.5 47.5L1618.69 48.0812L1621.19 51.5812L1622 51L1622.81 50.4188L1620.31 46.9188L1619.5 47.5ZM1622 51V52H1625.5V51V50H1622V51ZM1625.5 51L1626.29 50.3861L1622.79 45.8861L1622 46.5L1621.21 47.1139L1624.71 51.6139L1625.5 51ZM1622 46.5L1622.88 46.9789L1625.88 41.4789L1625 41L1624.12 40.5211L1621.12 46.0211L1622 46.5ZM1625 41V40H1622V41V42H1625V41ZM1622 41L1621.19 40.4188L1618.69 43.9188L1619.5 44.5L1620.31 45.0812L1622.81 41.5812L1622 41ZM1619.5 44.5V43.5H1618.5V44.5V45.5H1619.5V44.5ZM1618.5 44.5H1619.5V41.5H1618.5H1617.5V44.5H1618.5ZM1618.5 41.5H1619.5V41H1618.5H1617.5V41.5H1618.5ZM1618.5 41V40H1616V41V42H1618.5V41ZM1616 41V40H1615.5V41V42H1616V41ZM1615.5 41H1614.5V47.5H1615.5H1616.5V41H1615.5ZM1615.5 47.5L1616.14 46.7318C1615.28 46.0169 1613.5 43.8071 1613.5 41H1612.5H1611.5C1611.5 44.5929 1613.72 47.3164 1614.86 48.2682L1615.5 47.5ZM1612.5 41V40H1609.5V41V42H1612.5V41Z" fill="white" mask="url(#path-16-inside-1_341_49)"/>
<circle cx="1735.5" cy="45.5" r="7.5" stroke="black" stroke-width="3"/>
<path d="M1743.59 56.4142C1744.37 57.1953 1745.63 57.1953 1746.41 56.4142C1747.2 55.6332 1747.2 54.3668 1746.41 53.5858L1743.59 56.4142ZM1740 50L1738.59 51.4142L1743.59 56.4142L1745 55L1746.41 53.5858L1741.41 48.5858L1740 50Z" fill="black"/>
<rect x="19" width="1920" height="9" fill="#1980EF"/>
<defs>
<filter id="filter0_d_341_49" x="0.89707" y="63.9005" width="1947.2" height="49.1995" filterUnits="userSpaceOnUse" color-interpolation-filters="sRGB">
<feFlood flood-opacity="0" result="BackgroundImageFix"/>
<feColorMatrix in="SourceAlpha" type="matrix" values="0 0 0 0 0 0 0 0 0 0 0 0 0 0 0 0 0 0 127 0" result="hardAlpha"/>
<feOffset dx="-7" dy="8"/>
<feGaussianBlur stdDeviation="10.55"/>
<feComposite in2="hardAlpha" operator="out"/>
<feColorMatrix type="matrix" values="0 0 0 0 0.0230769 0 0 0 0 0.0228993 0 0 0 0 0.0228993 0 0 0 0.29 0"/>
<feBlend mode="normal" in2="BackgroundImageFix" result="effect1_dropShadow_341_49"/>
<feBlend mode="normal" in="SourceGraphic" in2="effect1_dropShadow_341_49" result="shape"/>
</filter>
</defs>
</svg>
