<svg width="1944" height="108" viewBox="0 0 1944 108" fill="none" xmlns="http://www.w3.org/2000/svg">
<g filter="url(#filter0_d_341_49)">
<rect x="12" y="1" width="1920" height="84" fill="white"/>
<path d="M1673.38 37.5137C1673.54 37.4775 1673.7 37.5144 1673.82 37.6172C1673.94 37.7201 1674.01 37.8744 1674 38.0312L1673.99 38.0977L1670.49 55.5977C1670.45 55.7785 1670.32 55.9251 1670.14 55.9785C1669.97 56.0318 1669.78 55.9838 1669.65 55.8535C1668.69 54.8955 1667.07 53.7664 1665.36 53.4414C1664.51 53.2808 1663.65 53.3183 1662.82 53.6562C1662 53.9937 1661.17 54.6462 1660.42 55.7773C1660.29 55.9606 1660.07 56.0422 1659.86 55.9785C1659.64 55.9147 1659.5 55.7203 1659.5 55.5V51.5C1659.5 51.3765 1659.55 51.2569 1659.63 51.165L1666.86 43.1279L1657.22 47.9473C1657.15 47.9835 1657.07 48.0014 1656.99 48L1656.91 47.9922L1651.41 46.9922C1651.19 46.952 1651.02 46.7697 1651 46.5469C1650.98 46.3241 1651.11 46.114 1651.32 46.0332L1673.32 37.5332L1673.38 37.5137Z" fill="#111111" stroke="#111111" stroke-linejoin="round"/>
<path d="M736.936 54.3848C735.849 54.959 734.495 55.2461 732.875 55.2461C730.783 55.2461 729.108 54.5728 727.851 53.2261C726.593 51.8794 725.964 50.1123 725.964 47.9248C725.964 45.5732 726.671 43.6729 728.086 42.2236C729.501 40.7744 731.296 40.0498 733.47 40.0498C734.864 40.0498 736.02 40.2515 736.936 40.6548V42.4902C735.883 41.9023 734.721 41.6084 733.449 41.6084C731.761 41.6084 730.39 42.1724 729.337 43.3003C728.292 44.4282 727.769 45.9355 727.769 47.8223C727.769 49.6133 728.257 51.042 729.235 52.1084C730.219 53.168 731.508 53.6978 733.101 53.6978C734.577 53.6978 735.855 53.3696 736.936 52.7134V54.3848ZM748.625 41.8545H744.38V55H742.657V41.8545H738.422V40.2959H748.625V41.8545ZM762.324 55H760.417L758.858 50.8779H752.624L751.158 55H749.24L754.88 40.2959H756.664L762.324 55ZM758.294 49.3296L755.987 43.0645C755.912 42.8594 755.837 42.5312 755.762 42.0801H755.721C755.652 42.4971 755.574 42.8252 755.485 43.0645L753.198 49.3296H758.294ZM773.193 41.8545H768.948V55H767.226V41.8545H762.991V40.2959H773.193V41.8545ZM775.511 55V40.2959H777.233V46.5303H780.022C781.485 46.5303 782.624 46.8857 783.437 47.5967C784.25 48.3008 784.657 49.3057 784.657 50.6113C784.657 51.9648 784.23 53.0347 783.375 53.8208C782.521 54.6069 781.355 55 779.879 55H775.511ZM777.233 48.0889V53.4414H779.653C780.672 53.4414 781.458 53.2021 782.012 52.7236C782.565 52.2451 782.842 51.5752 782.842 50.7139C782.842 48.9639 781.779 48.0889 779.653 48.0889H777.233ZM799.464 55H797.741V44.377C797.741 43.4199 797.775 42.7466 797.844 42.3569H797.782C797.652 42.6919 797.495 42.9995 797.311 43.2798L789.743 55H787.61V40.2959H789.333V50.6523C789.333 51.7598 789.306 52.481 789.251 52.8159H789.292C789.442 52.5151 789.634 52.187 789.866 51.8315L797.249 40.2959H799.464V55Z" fill="#2D2D2D"/>
<path d="M849.182 55H847.459V41.8545H843.378C842.906 45.5596 842.534 48.1777 842.26 49.709C841.987 51.2402 841.71 52.3682 841.43 53.0928C841.149 53.8174 840.77 54.3574 840.292 54.7129C839.813 55.0615 839.239 55.2358 838.569 55.2358C838.029 55.2358 837.561 55.1641 837.164 55.0205V53.4004C837.513 53.5986 837.899 53.6978 838.323 53.6978C838.747 53.6978 839.143 53.4448 839.512 52.939C839.888 52.4331 840.268 51.1172 840.65 48.9912C841.04 46.8652 841.471 43.9668 841.942 40.2959H849.182V55ZM863.168 40.2959L858.625 50.5601C857.819 52.3784 857.04 53.6157 856.288 54.272C855.536 54.9282 854.715 55.2563 853.827 55.2563C853.095 55.2563 852.483 55.1504 851.991 54.9385V53.1953C852.579 53.5439 853.146 53.7183 853.693 53.7183C854.247 53.7183 854.756 53.5063 855.221 53.0825C855.686 52.6519 856.188 51.8965 856.729 50.8164L851.745 40.2959H853.704L857.231 48.1504C857.292 48.2803 857.419 48.5981 857.61 49.104H857.631C857.651 49.0425 857.792 48.7109 858.051 48.1094L861.322 40.2959H863.168ZM874.868 55H873.145V48.3862C871.58 49.2134 870.124 49.627 868.777 49.627C867.492 49.627 866.497 49.2954 865.793 48.6323C865.096 47.9624 864.747 47.0259 864.747 45.8228V40.2959H866.47V45.7407C866.47 47.3198 867.311 48.1094 868.992 48.1094C870.209 48.1094 871.593 47.7334 873.145 46.9814V40.2959H874.868V55ZM894.904 55H878.856V40.2959H880.579V53.4414H886.024V40.2959H887.736V53.4414H893.181V40.2959H894.904V55ZM906.583 55H898.79V40.2959H906.255V41.8545H900.513V46.7456H905.824V48.2939H900.513V53.4414H906.583V55ZM917.206 55H909.413V40.2959H916.878V41.8545H911.136V46.7456H916.447V48.2939H911.136V53.4414H917.206V55Z" fill="#2D2D2D"/>
<path d="M965.981 55H964.259V48.2939H956.65V55H954.928V40.2959H956.65V46.7456H964.259V40.2959H965.981V55ZM975.764 55.2461C973.679 55.2461 972.007 54.5591 970.75 53.1851C969.499 51.811 968.873 50.0234 968.873 47.8223C968.873 45.457 969.512 43.5703 970.791 42.1621C972.069 40.7539 973.809 40.0498 976.01 40.0498C978.04 40.0498 979.674 40.7334 980.911 42.1006C982.155 43.4678 982.777 45.2554 982.777 47.4634C982.777 49.8628 982.142 51.7598 980.87 53.1543C979.599 54.5488 977.896 55.2461 975.764 55.2461ZM975.887 41.6084C974.342 41.6084 973.087 42.1655 972.124 43.2798C971.16 44.394 970.678 45.8569 970.678 47.6685C970.678 49.48 971.146 50.9395 972.083 52.0469C973.026 53.1475 974.253 53.6978 975.764 53.6978C977.377 53.6978 978.648 53.1714 979.578 52.1187C980.508 51.0659 980.973 49.5928 980.973 47.6992C980.973 45.7578 980.521 44.2573 979.619 43.1978C978.717 42.1382 977.473 41.6084 975.887 41.6084ZM985.669 55V40.2959H989.853C991.124 40.2959 992.132 40.6069 992.877 41.229C993.623 41.8511 993.995 42.6611 993.995 43.6592C993.995 44.4932 993.77 45.2178 993.318 45.833C992.867 46.4482 992.245 46.8857 991.452 47.1455V47.1865C992.443 47.3027 993.236 47.6787 993.831 48.3145C994.426 48.9434 994.723 49.7637 994.723 50.7754C994.723 52.0332 994.272 53.0518 993.37 53.8311C992.467 54.6104 991.329 55 989.955 55H985.669ZM987.392 41.8545V46.6021H989.155C990.099 46.6021 990.84 46.3765 991.38 45.9253C991.92 45.4673 992.19 44.8247 992.19 43.9976C992.19 42.5688 991.25 41.8545 989.371 41.8545H987.392ZM987.392 48.1504V53.4414H989.729C990.741 53.4414 991.524 53.2021 992.078 52.7236C992.638 52.2451 992.918 51.5889 992.918 50.7549C992.918 49.0186 991.736 48.1504 989.371 48.1504H987.392ZM1003.63 55.2461C1001.55 55.2461 999.877 54.5591 998.62 53.1851C997.369 51.811 996.743 50.0234 996.743 47.8223C996.743 45.457 997.382 43.5703 998.661 42.1621C999.939 40.7539 1001.68 40.0498 1003.88 40.0498C1005.91 40.0498 1007.54 40.7334 1008.78 42.1006C1010.03 43.4678 1010.65 45.2554 1010.65 47.4634C1010.65 49.8628 1010.01 51.7598 1008.74 53.1543C1007.47 54.5488 1005.77 55.2461 1003.63 55.2461ZM1003.76 41.6084C1002.21 41.6084 1000.96 42.1655 999.994 43.2798C999.03 44.394 998.548 45.8569 998.548 47.6685C998.548 49.48 999.016 50.9395 999.953 52.0469C1000.9 53.1475 1002.12 53.6978 1003.63 53.6978C1005.25 53.6978 1006.52 53.1714 1007.45 52.1187C1008.38 51.0659 1008.84 49.5928 1008.84 47.6992C1008.84 45.7578 1008.39 44.2573 1007.49 43.1978C1006.59 42.1382 1005.34 41.6084 1003.76 41.6084ZM1023.55 54.3848C1022.46 54.959 1021.11 55.2461 1019.49 55.2461C1017.39 55.2461 1015.72 54.5728 1014.46 53.2261C1013.2 51.8794 1012.58 50.1123 1012.58 47.9248C1012.58 45.5732 1013.28 43.6729 1014.7 42.2236C1016.11 40.7744 1017.91 40.0498 1020.08 40.0498C1021.48 40.0498 1022.63 40.2515 1023.55 40.6548V42.4902C1022.49 41.9023 1021.33 41.6084 1020.06 41.6084C1018.37 41.6084 1017 42.1724 1015.95 43.3003C1014.9 44.4282 1014.38 45.9355 1014.38 47.8223C1014.38 49.6133 1014.87 51.042 1015.85 52.1084C1016.83 53.168 1018.12 53.6978 1019.71 53.6978C1021.19 53.6978 1022.47 53.3696 1023.55 52.7134V54.3848ZM1035.24 41.8545H1030.99V55H1029.27V41.8545H1025.03V40.2959H1035.24V41.8545ZM1049.41 55H1047.68V44.377C1047.68 43.4199 1047.72 42.7466 1047.79 42.3569H1047.73C1047.6 42.6919 1047.44 42.9995 1047.25 43.2798L1039.69 55H1037.55V40.2959H1039.28V50.6523C1039.28 51.7598 1039.25 52.481 1039.19 52.8159H1039.24C1039.39 52.5151 1039.58 52.187 1039.81 51.8315L1047.19 40.2959H1049.41V55Z" fill="#2D2D2D"/>
<path d="M1096.62 41.8545H1092.38V55H1090.66V41.8545H1086.42V40.2959H1096.62V41.8545ZM1106.73 55H1098.94V40.2959H1106.41V41.8545H1100.66V46.7456H1105.97V48.2939H1100.66V53.4414H1106.73V55ZM1119.57 54.3848C1118.48 54.959 1117.13 55.2461 1115.51 55.2461C1113.42 55.2461 1111.74 54.5728 1110.49 53.2261C1109.23 51.8794 1108.6 50.1123 1108.6 47.9248C1108.6 45.5732 1109.31 43.6729 1110.72 42.2236C1112.14 40.7744 1113.93 40.0498 1116.11 40.0498C1117.5 40.0498 1118.66 40.2515 1119.57 40.6548V42.4902C1118.52 41.9023 1117.36 41.6084 1116.08 41.6084C1114.4 41.6084 1113.03 42.1724 1111.97 43.3003C1110.93 44.4282 1110.4 45.9355 1110.4 47.8223C1110.4 49.6133 1110.89 51.042 1111.87 52.1084C1112.85 53.168 1114.14 53.6978 1115.74 53.6978C1117.21 53.6978 1118.49 53.3696 1119.57 52.7134V54.3848ZM1131.26 41.8545H1127.02V55H1125.29V41.8545H1121.06V40.2959H1131.26V41.8545ZM1146.16 55H1144.44V40.2959H1146.16V55ZM1133.58 55V40.2959H1135.3V46.5303H1138.09C1139.55 46.5303 1140.69 46.8857 1141.5 47.5967C1142.32 48.3008 1142.72 49.3057 1142.72 50.6113C1142.72 51.9648 1142.3 53.0347 1141.44 53.8208C1140.59 54.6069 1139.42 55 1137.95 55H1133.58ZM1135.3 48.0889V53.4414H1137.72C1138.74 53.4414 1139.53 53.2021 1140.08 52.7236C1140.63 52.2451 1140.91 51.5752 1140.91 50.7139C1140.91 48.9639 1139.85 48.0889 1137.72 48.0889H1135.3Z" fill="#2D2D2D"/>
<path d="M182.224 66V28.9091H190.066V44.2127H205.985V28.9091H213.809V66H205.985V50.6783H190.066V66H182.224ZM254.359 47.4545C254.359 51.4993 253.592 54.9403 252.059 57.7777C250.538 60.6151 248.461 62.7823 245.829 64.2795C243.209 65.7646 240.263 66.5071 236.991 66.5071C233.695 66.5071 230.737 65.7585 228.116 64.2614C225.496 62.7642 223.426 60.5969 221.904 57.7596C220.383 54.9222 219.623 51.4872 219.623 47.4545C219.623 43.4098 220.383 39.9688 221.904 37.1314C223.426 34.294 225.496 32.1328 228.116 30.6477C230.737 29.1506 233.695 28.402 236.991 28.402C240.263 28.402 243.209 29.1506 245.829 30.6477C248.461 32.1328 250.538 34.294 252.059 37.1314C253.592 39.9688 254.359 43.4098 254.359 47.4545ZM246.408 47.4545C246.408 44.8345 246.016 42.625 245.231 40.826C244.458 39.027 243.366 37.6626 241.953 36.733C240.54 35.8033 238.886 35.3384 236.991 35.3384C235.095 35.3384 233.441 35.8033 232.028 36.733C230.616 37.6626 229.517 39.027 228.732 40.826C227.96 42.625 227.573 44.8345 227.573 47.4545C227.573 50.0746 227.96 52.2841 228.732 54.0831C229.517 55.8821 230.616 57.2464 232.028 58.1761C233.441 59.1058 235.095 59.5707 236.991 59.5707C238.886 59.5707 240.54 59.1058 241.953 58.1761C243.366 57.2464 244.458 55.8821 245.231 54.0831C246.016 52.2841 246.408 50.0746 246.408 47.4545ZM286.678 28.9091V66H279.071V28.9091H286.678ZM256.668 66L268.295 46.4403L257.157 28.9091H266.81L275.141 44.1765H290.807L298.921 28.9091H308.537L297.671 46.386L309.081 66H299.718L291.876 51.4208H274L265.959 66H256.668Z" fill="#FF8A4F"/>
<rect x="1178" y="36.6353" width="21.8578" height="20.9471" rx="4" transform="rotate(-9.57367 1178 36.6353)" stroke="#2D2D2D" stroke-width="2"/>
<circle cx="1190.59" cy="45.5942" r="1.82148" transform="rotate(-9.57367 1190.59 45.5942)" fill="#2D2D2D"/>
<circle cx="1184.3" cy="41.1148" r="1.82148" transform="rotate(-9.57367 1184.3 41.1148)" fill="#2D2D2D"/>
<circle cx="1195.07" cy="39.2969" r="1.82148" transform="rotate(-9.57367 1195.07 39.2969)" fill="#2D2D2D"/>
<circle cx="1196.89" cy="50.0737" r="1.82148" transform="rotate(-9.57367 1196.89 50.0737)" fill="#2D2D2D"/>
<circle cx="1186.11" cy="51.8911" r="1.82148" transform="rotate(-9.57367 1186.11 51.8911)" fill="#2D2D2D"/>
<rect x="1599" y="35" width="23" height="23" rx="6" fill="#111111"/>
<mask id="path-15-inside-1_341_49" fill="white">
<path d="M1608.5 52C1605.3 52 1602.83 45.3333 1602.5 42H1605.5C1605.5 45.2 1607.5 47.6667 1608.5 48.5V42H1609H1611.5V42.5V45.5H1612.5L1615 42H1618L1615 47.5L1618.5 52H1615L1612.5 48.5H1611.5V52H1608.5Z"/>
</mask>
<path d="M1608.5 52C1605.3 52 1602.83 45.3333 1602.5 42H1605.5C1605.5 45.2 1607.5 47.6667 1608.5 48.5V42H1609H1611.5V42.5V45.5H1612.5L1615 42H1618L1615 47.5L1618.5 52H1615L1612.5 48.5H1611.5V52H1608.5Z" fill="white"/>
<path d="M1602.5 42V41H1601.4L1601.5 42.0995L1602.5 42ZM1611.5 52V53H1612.5V52H1611.5ZM1611.5 48.5V47.5H1610.5V48.5H1611.5ZM1612.5 48.5L1613.31 47.9188L1613.01 47.5H1612.5V48.5ZM1615 52L1614.19 52.5812L1614.49 53H1615V52ZM1618.5 52V53H1620.54L1619.29 51.3861L1618.5 52ZM1615 47.5L1614.12 47.0211L1613.81 47.5966L1614.21 48.1139L1615 47.5ZM1618 42L1618.88 42.4789L1619.68 41H1618V42ZM1615 42V41H1614.49L1614.19 41.4188L1615 42ZM1612.5 45.5V46.5H1613.01L1613.31 46.0812L1612.5 45.5ZM1611.5 45.5H1610.5V46.5H1611.5V45.5ZM1611.5 42H1612.5V41H1611.5V42ZM1608.5 42V41H1607.5V42H1608.5ZM1608.5 48.5L1607.86 49.2682L1609.5 50.635V48.5H1608.5ZM1605.5 42H1606.5V41H1605.5V42ZM1602.5 42L1601.5 42.0995C1601.68 43.8981 1602.42 46.5173 1603.53 48.7029C1604.09 49.7979 1604.77 50.838 1605.56 51.6182C1606.34 52.3937 1607.34 53 1608.5 53V52V51C1608.06 51 1607.55 50.773 1606.96 50.1943C1606.38 49.6203 1605.82 48.7854 1605.32 47.7971C1604.31 45.816 1603.65 43.4352 1603.5 41.9005L1602.5 42ZM1608.5 52V53H1611.5V52V51H1608.5V52ZM1611.5 52H1612.5V48.5H1611.5H1610.5V52H1611.5ZM1611.5 48.5V49.5H1612.5V48.5V47.5H1611.5V48.5ZM1612.5 48.5L1611.69 49.0812L1614.19 52.5812L1615 52L1615.81 51.4188L1613.31 47.9188L1612.5 48.5ZM1615 52V53H1618.5V52V51H1615V52ZM1618.5 52L1619.29 51.3861L1615.79 46.8861L1615 47.5L1614.21 48.1139L1617.71 52.6139L1618.5 52ZM1615 47.5L1615.88 47.9789L1618.88 42.4789L1618 42L1617.12 41.5211L1614.12 47.0211L1615 47.5ZM1618 42V41H1615V42V43H1618V42ZM1615 42L1614.19 41.4188L1611.69 44.9188L1612.5 45.5L1613.31 46.0812L1615.81 42.5812L1615 42ZM1612.5 45.5V44.5H1611.5V45.5V46.5H1612.5V45.5ZM1611.5 45.5H1612.5V42.5H1611.5H1610.5V45.5H1611.5ZM1611.5 42.5H1612.5V42H1611.5H1610.5V42.5H1611.5ZM1611.5 42V41H1609V42V43H1611.5V42ZM1609 42V41H1608.5V42V43H1609V42ZM1608.5 42H1607.5V48.5H1608.5H1609.5V42H1608.5ZM1608.5 48.5L1609.14 47.7318C1608.28 47.0169 1606.5 44.8071 1606.5 42H1605.5H1604.5C1604.5 45.5929 1606.72 48.3164 1607.86 49.2682L1608.5 48.5ZM1605.5 42V41H1602.5V42V43H1605.5V42Z" fill="white" mask="url(#path-15-inside-1_341_49)"/>
<circle cx="1728.5" cy="46.5" r="7.5" stroke="black" stroke-width="3"/>
<path d="M1736.59 57.4142C1737.37 58.1953 1738.63 58.1953 1739.41 57.4142C1740.2 56.6332 1740.2 55.3668 1739.41 54.5858L1736.59 57.4142ZM1733 51L1731.59 52.4142L1736.59 57.4142L1738 56L1739.41 54.5858L1734.41 49.5858L1733 51Z" fill="black"/>
<rect x="12" y="1" width="1920" height="9" fill="#1980EF"/>
</g>
<defs>
<filter id="filter0_d_341_49" x="0.9" y="0.9" width="1942.2" height="106.2" filterUnits="userSpaceOnUse" color-interpolation-filters="sRGB">
<feFlood flood-opacity="0" result="BackgroundImageFix"/>
<feColorMatrix in="SourceAlpha" type="matrix" values="0 0 0 0 0 0 0 0 0 0 0 0 0 0 0 0 0 0 127 0" result="hardAlpha"/>
<feOffset dy="11"/>
<feGaussianBlur stdDeviation="5.55"/>
<feComposite in2="hardAlpha" operator="out"/>
<feColorMatrix type="matrix" values="0 0 0 0 0 0 0 0 0 0 0 0 0 0 0 0 0 0 0.25 0"/>
<feBlend mode="normal" in2="BackgroundImageFix" result="effect1_dropShadow_341_49"/>
<feBlend mode="normal" in="SourceGraphic" in2="effect1_dropShadow_341_49" result="shape"/>
</filter>
</defs>
</svg>
