<svg width="1920" height="114" viewBox="0 0 1920 114" fill="none" xmlns="http://www.w3.org/2000/svg">
<g filter="url(#filter0_d_341_49)">
<line x1="87" y1="81" x2="1805" y2="81" stroke="white" stroke-width="6"/>
</g>
<rect width="1920" height="84" fill="white"/>
<path d="M1661.38 36.5137C1661.54 36.4775 1661.7 36.5144 1661.82 36.6172C1661.94 36.7201 1662.01 36.8744 1662 37.0312L1661.99 37.0977L1658.49 54.5977C1658.45 54.7785 1658.32 54.9251 1658.14 54.9785C1657.97 55.0318 1657.78 54.9838 1657.65 54.8535C1656.69 53.8955 1655.07 52.7664 1653.36 52.4414C1652.51 52.2808 1651.65 52.3183 1650.82 52.6562C1650 52.9937 1649.17 53.6462 1648.42 54.7773C1648.29 54.9606 1648.07 55.0422 1647.86 54.9785C1647.64 54.9147 1647.5 54.7203 1647.5 54.5V50.5C1647.5 50.3765 1647.55 50.2569 1647.63 50.165L1654.86 42.1279L1645.22 46.9473C1645.15 46.9835 1645.07 47.0014 1644.99 47L1644.91 46.9922L1639.41 45.9922C1639.19 45.952 1639.02 45.7697 1639 45.5469C1638.98 45.3241 1639.11 45.114 1639.32 45.0332L1661.32 36.5332L1661.38 36.5137Z" fill="#111111" stroke="#111111" stroke-linejoin="round"/>
<path d="M724.936 53.3848C723.849 53.959 722.495 54.2461 720.875 54.2461C718.783 54.2461 717.108 53.5728 715.851 52.2261C714.593 50.8794 713.964 49.1123 713.964 46.9248C713.964 44.5732 714.671 42.6729 716.086 41.2236C717.501 39.7744 719.296 39.0498 721.47 39.0498C722.864 39.0498 724.02 39.2515 724.936 39.6548V41.4902C723.883 40.9023 722.721 40.6084 721.449 40.6084C719.761 40.6084 718.39 41.1724 717.337 42.3003C716.292 43.4282 715.769 44.9355 715.769 46.8223C715.769 48.6133 716.257 50.042 717.235 51.1084C718.219 52.168 719.508 52.6978 721.101 52.6978C722.577 52.6978 723.855 52.3696 724.936 51.7134V53.3848ZM736.625 40.8545H732.38V54H730.657V40.8545H726.422V39.2959H736.625V40.8545ZM750.324 54H748.417L746.858 49.8779H740.624L739.158 54H737.24L742.88 39.2959H744.664L750.324 54ZM746.294 48.3296L743.987 42.0645C743.912 41.8594 743.837 41.5312 743.762 41.0801H743.721C743.652 41.4971 743.574 41.8252 743.485 42.0645L741.198 48.3296H746.294ZM761.193 40.8545H756.948V54H755.226V40.8545H750.991V39.2959H761.193V40.8545ZM763.511 54V39.2959H765.233V45.5303H768.022C769.485 45.5303 770.624 45.8857 771.437 46.5967C772.25 47.3008 772.657 48.3057 772.657 49.6113C772.657 50.9648 772.23 52.0347 771.375 52.8208C770.521 53.6069 769.355 54 767.879 54H763.511ZM765.233 47.0889V52.4414H767.653C768.672 52.4414 769.458 52.2021 770.012 51.7236C770.565 51.2451 770.842 50.5752 770.842 49.7139C770.842 47.9639 769.779 47.0889 767.653 47.0889H765.233ZM787.464 54H785.741V43.377C785.741 42.4199 785.775 41.7466 785.844 41.3569H785.782C785.652 41.6919 785.495 41.9995 785.311 42.2798L777.743 54H775.61V39.2959H777.333V49.6523C777.333 50.7598 777.306 51.481 777.251 51.8159H777.292C777.442 51.5151 777.634 51.187 777.866 50.8315L785.249 39.2959H787.464V54Z" fill="#2D2D2D"/>
<path d="M837.182 54H835.459V40.8545H831.378C830.906 44.5596 830.534 47.1777 830.26 48.709C829.987 50.2402 829.71 51.3682 829.43 52.0928C829.149 52.8174 828.77 53.3574 828.292 53.7129C827.813 54.0615 827.239 54.2358 826.569 54.2358C826.029 54.2358 825.561 54.1641 825.164 54.0205V52.4004C825.513 52.5986 825.899 52.6978 826.323 52.6978C826.747 52.6978 827.143 52.4448 827.512 51.939C827.888 51.4331 828.268 50.1172 828.65 47.9912C829.04 45.8652 829.471 42.9668 829.942 39.2959H837.182V54ZM851.168 39.2959L846.625 49.5601C845.819 51.3784 845.04 52.6157 844.288 53.272C843.536 53.9282 842.715 54.2563 841.827 54.2563C841.095 54.2563 840.483 54.1504 839.991 53.9385V52.1953C840.579 52.5439 841.146 52.7183 841.693 52.7183C842.247 52.7183 842.756 52.5063 843.221 52.0825C843.686 51.6519 844.188 50.8965 844.729 49.8164L839.745 39.2959H841.704L845.231 47.1504C845.292 47.2803 845.419 47.5981 845.61 48.104H845.631C845.651 48.0425 845.792 47.7109 846.051 47.1094L849.322 39.2959H851.168ZM862.868 54H861.145V47.3862C859.58 48.2134 858.124 48.627 856.777 48.627C855.492 48.627 854.497 48.2954 853.793 47.6323C853.096 46.9624 852.747 46.0259 852.747 44.8228V39.2959H854.47V44.7407C854.47 46.3198 855.311 47.1094 856.992 47.1094C858.209 47.1094 859.593 46.7334 861.145 45.9814V39.2959H862.868V54ZM882.904 54H866.856V39.2959H868.579V52.4414H874.024V39.2959H875.736V52.4414H881.181V39.2959H882.904V54ZM894.583 54H886.79V39.2959H894.255V40.8545H888.513V45.7456H893.824V47.2939H888.513V52.4414H894.583V54ZM905.206 54H897.413V39.2959H904.878V40.8545H899.136V45.7456H904.447V47.2939H899.136V52.4414H905.206V54Z" fill="#2D2D2D"/>
<path d="M953.981 54H952.259V47.2939H944.65V54H942.928V39.2959H944.65V45.7456H952.259V39.2959H953.981V54ZM963.764 54.2461C961.679 54.2461 960.007 53.5591 958.75 52.1851C957.499 50.811 956.873 49.0234 956.873 46.8223C956.873 44.457 957.512 42.5703 958.791 41.1621C960.069 39.7539 961.809 39.0498 964.01 39.0498C966.04 39.0498 967.674 39.7334 968.911 41.1006C970.155 42.4678 970.777 44.2554 970.777 46.4634C970.777 48.8628 970.142 50.7598 968.87 52.1543C967.599 53.5488 965.896 54.2461 963.764 54.2461ZM963.887 40.6084C962.342 40.6084 961.087 41.1655 960.124 42.2798C959.16 43.394 958.678 44.8569 958.678 46.6685C958.678 48.48 959.146 49.9395 960.083 51.0469C961.026 52.1475 962.253 52.6978 963.764 52.6978C965.377 52.6978 966.648 52.1714 967.578 51.1187C968.508 50.0659 968.973 48.5928 968.973 46.6992C968.973 44.7578 968.521 43.2573 967.619 42.1978C966.717 41.1382 965.473 40.6084 963.887 40.6084ZM973.669 54V39.2959H977.853C979.124 39.2959 980.132 39.6069 980.877 40.229C981.623 40.8511 981.995 41.6611 981.995 42.6592C981.995 43.4932 981.77 44.2178 981.318 44.833C980.867 45.4482 980.245 45.8857 979.452 46.1455V46.1865C980.443 46.3027 981.236 46.6787 981.831 47.3145C982.426 47.9434 982.723 48.7637 982.723 49.7754C982.723 51.0332 982.272 52.0518 981.37 52.8311C980.467 53.6104 979.329 54 977.955 54H973.669ZM975.392 40.8545V45.6021H977.155C978.099 45.6021 978.84 45.3765 979.38 44.9253C979.92 44.4673 980.19 43.8247 980.19 42.9976C980.19 41.5688 979.25 40.8545 977.371 40.8545H975.392ZM975.392 47.1504V52.4414H977.729C978.741 52.4414 979.524 52.2021 980.078 51.7236C980.638 51.2451 980.918 50.5889 980.918 49.7549C980.918 48.0186 979.736 47.1504 977.371 47.1504H975.392ZM991.634 54.2461C989.549 54.2461 987.877 53.5591 986.62 52.1851C985.369 50.811 984.743 49.0234 984.743 46.8223C984.743 44.457 985.382 42.5703 986.661 41.1621C987.939 39.7539 989.679 39.0498 991.88 39.0498C993.91 39.0498 995.544 39.7334 996.781 41.1006C998.025 42.4678 998.647 44.2554 998.647 46.4634C998.647 48.8628 998.012 50.7598 996.74 52.1543C995.469 53.5488 993.767 54.2461 991.634 54.2461ZM991.757 40.6084C990.212 40.6084 988.958 41.1655 987.994 42.2798C987.03 43.394 986.548 44.8569 986.548 46.6685C986.548 48.48 987.016 49.9395 987.953 51.0469C988.896 52.1475 990.123 52.6978 991.634 52.6978C993.247 52.6978 994.519 52.1714 995.448 51.1187C996.378 50.0659 996.843 48.5928 996.843 46.6992C996.843 44.7578 996.392 43.2573 995.489 42.1978C994.587 41.1382 993.343 40.6084 991.757 40.6084ZM1011.55 53.3848C1010.46 53.959 1009.11 54.2461 1007.49 54.2461C1005.39 54.2461 1003.72 53.5728 1002.46 52.2261C1001.2 50.8794 1000.58 49.1123 1000.58 46.9248C1000.58 44.5732 1001.28 42.6729 1002.7 41.2236C1004.11 39.7744 1005.91 39.0498 1008.08 39.0498C1009.48 39.0498 1010.63 39.2515 1011.55 39.6548V41.4902C1010.49 40.9023 1009.33 40.6084 1008.06 40.6084C1006.37 40.6084 1005 41.1724 1003.95 42.3003C1002.9 43.4282 1002.38 44.9355 1002.38 46.8223C1002.38 48.6133 1002.87 50.042 1003.85 51.1084C1004.83 52.168 1006.12 52.6978 1007.71 52.6978C1009.19 52.6978 1010.47 52.3696 1011.55 51.7134V53.3848ZM1023.24 40.8545H1018.99V54H1017.27V40.8545H1013.03V39.2959H1023.24V40.8545ZM1037.41 54H1035.68V43.377C1035.68 42.4199 1035.72 41.7466 1035.79 41.3569H1035.73C1035.6 41.6919 1035.44 41.9995 1035.25 42.2798L1027.69 54H1025.55V39.2959H1027.28V49.6523C1027.28 50.7598 1027.25 51.481 1027.19 51.8159H1027.24C1027.39 51.5151 1027.58 51.187 1027.81 50.8315L1035.19 39.2959H1037.41V54Z" fill="#2D2D2D"/>
<path d="M1084.62 40.8545H1080.38V54H1078.66V40.8545H1074.42V39.2959H1084.62V40.8545ZM1094.73 54H1086.94V39.2959H1094.41V40.8545H1088.66V45.7456H1093.97V47.2939H1088.66V52.4414H1094.73V54ZM1107.57 53.3848C1106.48 53.959 1105.13 54.2461 1103.51 54.2461C1101.42 54.2461 1099.74 53.5728 1098.49 52.2261C1097.23 50.8794 1096.6 49.1123 1096.6 46.9248C1096.6 44.5732 1097.31 42.6729 1098.72 41.2236C1100.14 39.7744 1101.93 39.0498 1104.11 39.0498C1105.5 39.0498 1106.66 39.2515 1107.57 39.6548V41.4902C1106.52 40.9023 1105.36 40.6084 1104.08 40.6084C1102.4 40.6084 1101.03 41.1724 1099.97 42.3003C1098.93 43.4282 1098.4 44.9355 1098.4 46.8223C1098.4 48.6133 1098.89 50.042 1099.87 51.1084C1100.85 52.168 1102.14 52.6978 1103.74 52.6978C1105.21 52.6978 1106.49 52.3696 1107.57 51.7134V53.3848ZM1119.26 40.8545H1115.02V54H1113.29V40.8545H1109.06V39.2959H1119.26V40.8545ZM1134.16 54H1132.44V39.2959H1134.16V54ZM1121.58 54V39.2959H1123.3V45.5303H1126.09C1127.55 45.5303 1128.69 45.8857 1129.5 46.5967C1130.32 47.3008 1130.72 48.3057 1130.72 49.6113C1130.72 50.9648 1130.3 52.0347 1129.44 52.8208C1128.59 53.6069 1127.42 54 1125.95 54H1121.58ZM1123.3 47.0889V52.4414H1125.72C1126.74 52.4414 1127.53 52.2021 1128.08 51.7236C1128.63 51.2451 1128.91 50.5752 1128.91 49.7139C1128.91 47.9639 1127.85 47.0889 1125.72 47.0889H1123.3Z" fill="#2D2D2D"/>
<path d="M170.224 65V27.9091H178.066V43.2127H193.985V27.9091H201.809V65H193.985V49.6783H178.066V65H170.224ZM242.359 46.4545C242.359 50.4993 241.592 53.9403 240.059 56.7777C238.538 59.6151 236.461 61.7823 233.829 63.2795C231.209 64.7646 228.263 65.5071 224.991 65.5071C221.695 65.5071 218.737 64.7585 216.116 63.2614C213.496 61.7642 211.426 59.5969 209.904 56.7596C208.383 53.9222 207.623 50.4872 207.623 46.4545C207.623 42.4098 208.383 38.9688 209.904 36.1314C211.426 33.294 213.496 31.1328 216.116 29.6477C218.737 28.1506 221.695 27.402 224.991 27.402C228.263 27.402 231.209 28.1506 233.829 29.6477C236.461 31.1328 238.538 33.294 240.059 36.1314C241.592 38.9688 242.359 42.4098 242.359 46.4545ZM234.408 46.4545C234.408 43.8345 234.016 41.625 233.231 39.826C232.458 38.027 231.366 36.6626 229.953 35.733C228.54 34.8033 226.886 34.3384 224.991 34.3384C223.095 34.3384 221.441 34.8033 220.028 35.733C218.616 36.6626 217.517 38.027 216.732 39.826C215.96 41.625 215.573 43.8345 215.573 46.4545C215.573 49.0746 215.96 51.2841 216.732 53.0831C217.517 54.8821 218.616 56.2464 220.028 57.1761C221.441 58.1058 223.095 58.5707 224.991 58.5707C226.886 58.5707 228.54 58.1058 229.953 57.1761C231.366 56.2464 232.458 54.8821 233.231 53.0831C234.016 51.2841 234.408 49.0746 234.408 46.4545ZM274.678 27.9091V65H267.071V27.9091H274.678ZM244.668 65L256.295 45.4403L245.157 27.9091H254.81L263.141 43.1765H278.807L286.921 27.9091H296.537L285.671 45.386L297.081 65H287.718L279.876 50.4208H262L253.959 65H244.668Z" fill="#FF8A4F"/>
<rect x="1166" y="35.6353" width="21.8578" height="20.9471" rx="4" transform="rotate(-9.57367 1166 35.6353)" stroke="#2D2D2D" stroke-width="2"/>
<circle cx="1178.59" cy="44.5942" r="1.82148" transform="rotate(-9.57367 1178.59 44.5942)" fill="#2D2D2D"/>
<circle cx="1172.3" cy="40.1148" r="1.82148" transform="rotate(-9.57367 1172.3 40.1148)" fill="#2D2D2D"/>
<circle cx="1183.07" cy="38.2969" r="1.82148" transform="rotate(-9.57367 1183.07 38.2969)" fill="#2D2D2D"/>
<circle cx="1184.89" cy="49.0737" r="1.82148" transform="rotate(-9.57367 1184.89 49.0737)" fill="#2D2D2D"/>
<circle cx="1174.11" cy="50.8911" r="1.82148" transform="rotate(-9.57367 1174.11 50.8911)" fill="#2D2D2D"/>
<rect x="1587" y="34" width="23" height="23" rx="6" fill="#111111"/>
<mask id="path-16-inside-1_341_49" fill="white">
<path d="M1596.5 51C1593.3 51 1590.83 44.3333 1590.5 41H1593.5C1593.5 44.2 1595.5 46.6667 1596.5 47.5V41H1597H1599.5V41.5V44.5H1600.5L1603 41H1606L1603 46.5L1606.5 51H1603L1600.5 47.5H1599.5V51H1596.5Z"/>
</mask>
<path d="M1596.5 51C1593.3 51 1590.83 44.3333 1590.5 41H1593.5C1593.5 44.2 1595.5 46.6667 1596.5 47.5V41H1597H1599.5V41.5V44.5H1600.5L1603 41H1606L1603 46.5L1606.5 51H1603L1600.5 47.5H1599.5V51H1596.5Z" fill="white"/>
<path d="M1590.5 41V40H1589.4L1589.5 41.0995L1590.5 41ZM1599.5 51V52H1600.5V51H1599.5ZM1599.5 47.5V46.5H1598.5V47.5H1599.5ZM1600.5 47.5L1601.31 46.9188L1601.01 46.5H1600.5V47.5ZM1603 51L1602.19 51.5812L1602.49 52H1603V51ZM1606.5 51V52H1608.54L1607.29 50.3861L1606.5 51ZM1603 46.5L1602.12 46.0211L1601.81 46.5966L1602.21 47.1139L1603 46.5ZM1606 41L1606.88 41.4789L1607.68 40H1606V41ZM1603 41V40H1602.49L1602.19 40.4188L1603 41ZM1600.5 44.5V45.5H1601.01L1601.31 45.0812L1600.5 44.5ZM1599.5 44.5H1598.5V45.5H1599.5V44.5ZM1599.5 41H1600.5V40H1599.5V41ZM1596.5 41V40H1595.5V41H1596.5ZM1596.5 47.5L1595.86 48.2682L1597.5 49.635V47.5H1596.5ZM1593.5 41H1594.5V40H1593.5V41ZM1590.5 41L1589.5 41.0995C1589.68 42.8981 1590.42 45.5173 1591.53 47.7029C1592.09 48.7979 1592.77 49.838 1593.56 50.6182C1594.34 51.3937 1595.34 52 1596.5 52V51V50C1596.06 50 1595.55 49.773 1594.96 49.1943C1594.38 48.6203 1593.82 47.7854 1593.32 46.7971C1592.31 44.816 1591.65 42.4352 1591.5 40.9005L1590.5 41ZM1596.5 51V52H1599.5V51V50H1596.5V51ZM1599.5 51H1600.5V47.5H1599.5H1598.5V51H1599.5ZM1599.5 47.5V48.5H1600.5V47.5V46.5H1599.5V47.5ZM1600.5 47.5L1599.69 48.0812L1602.19 51.5812L1603 51L1603.81 50.4188L1601.31 46.9188L1600.5 47.5ZM1603 51V52H1606.5V51V50H1603V51ZM1606.5 51L1607.29 50.3861L1603.79 45.8861L1603 46.5L1602.21 47.1139L1605.71 51.6139L1606.5 51ZM1603 46.5L1603.88 46.9789L1606.88 41.4789L1606 41L1605.12 40.5211L1602.12 46.0211L1603 46.5ZM1606 41V40H1603V41V42H1606V41ZM1603 41L1602.19 40.4188L1599.69 43.9188L1600.5 44.5L1601.31 45.0812L1603.81 41.5812L1603 41ZM1600.5 44.5V43.5H1599.5V44.5V45.5H1600.5V44.5ZM1599.5 44.5H1600.5V41.5H1599.5H1598.5V44.5H1599.5ZM1599.5 41.5H1600.5V41H1599.5H1598.5V41.5H1599.5ZM1599.5 41V40H1597V41V42H1599.5V41ZM1597 41V40H1596.5V41V42H1597V41ZM1596.5 41H1595.5V47.5H1596.5H1597.5V41H1596.5ZM1596.5 47.5L1597.14 46.7318C1596.28 46.0169 1594.5 43.8071 1594.5 41H1593.5H1592.5C1592.5 44.5929 1594.72 47.3164 1595.86 48.2682L1596.5 47.5ZM1593.5 41V40H1590.5V41V42H1593.5V41Z" fill="white" mask="url(#path-16-inside-1_341_49)"/>
<circle cx="1716.5" cy="45.5" r="7.5" stroke="black" stroke-width="3"/>
<path d="M1724.59 56.4142C1725.37 57.1953 1726.63 57.1953 1727.41 56.4142C1728.2 55.6332 1728.2 54.3668 1727.41 53.5858L1724.59 56.4142ZM1721 50L1719.59 51.4142L1724.59 56.4142L1726 55L1727.41 53.5858L1722.41 48.5858L1721 50Z" fill="black"/>
<rect width="1920" height="9" fill="#1980EF"/>
<defs>
<filter id="filter0_d_341_49" x="58.9" y="64.9" width="1760.2" height="48.2" filterUnits="userSpaceOnUse" color-interpolation-filters="sRGB">
<feFlood flood-opacity="0" result="BackgroundImageFix"/>
<feColorMatrix in="SourceAlpha" type="matrix" values="0 0 0 0 0 0 0 0 0 0 0 0 0 0 0 0 0 0 127 0" result="hardAlpha"/>
<feOffset dx="-7" dy="8"/>
<feGaussianBlur stdDeviation="10.55"/>
<feComposite in2="hardAlpha" operator="out"/>
<feColorMatrix type="matrix" values="0 0 0 0 0.0230769 0 0 0 0 0.0228993 0 0 0 0 0.0228993 0 0 0 0.29 0"/>
<feBlend mode="normal" in2="BackgroundImageFix" result="effect1_dropShadow_341_49"/>
<feBlend mode="normal" in="SourceGraphic" in2="effect1_dropShadow_341_49" result="shape"/>
</filter>
</defs>
</svg>
