<svg width="1940" height="104" viewBox="0 0 1940 104" fill="none" xmlns="http://www.w3.org/2000/svg">
<g filter="url(#filter0_d_341_49)">
<rect x="10" y="1" width="1920" height="84" fill="white"/>
<path d="M1671.38 37.5137C1671.54 37.4775 1671.7 37.5144 1671.82 37.6172C1671.94 37.7201 1672.01 37.8744 1672 38.0312L1671.99 38.0977L1668.49 55.5977C1668.45 55.7785 1668.32 55.9251 1668.14 55.9785C1667.97 56.0318 1667.78 55.9838 1667.65 55.8535C1666.69 54.8955 1665.07 53.7664 1663.36 53.4414C1662.51 53.2808 1661.65 53.3183 1660.82 53.6562C1660 53.9937 1659.17 54.6462 1658.42 55.7773C1658.29 55.9606 1658.07 56.0422 1657.86 55.9785C1657.64 55.9147 1657.5 55.7203 1657.5 55.5V51.5C1657.5 51.3765 1657.55 51.2569 1657.63 51.165L1664.86 43.1279L1655.22 47.9473C1655.15 47.9835 1655.07 48.0014 1654.99 48L1654.91 47.9922L1649.41 46.9922C1649.19 46.952 1649.02 46.7697 1649 46.5469C1648.98 46.3241 1649.11 46.114 1649.32 46.0332L1671.32 37.5332L1671.38 37.5137Z" fill="#111111" stroke="#111111" stroke-linejoin="round"/>
<path d="M734.936 54.3848C733.849 54.959 732.495 55.2461 730.875 55.2461C728.783 55.2461 727.108 54.5728 725.851 53.2261C724.593 51.8794 723.964 50.1123 723.964 47.9248C723.964 45.5732 724.671 43.6729 726.086 42.2236C727.501 40.7744 729.296 40.0498 731.47 40.0498C732.864 40.0498 734.02 40.2515 734.936 40.6548V42.4902C733.883 41.9023 732.721 41.6084 731.449 41.6084C729.761 41.6084 728.39 42.1724 727.337 43.3003C726.292 44.4282 725.769 45.9355 725.769 47.8223C725.769 49.6133 726.257 51.042 727.235 52.1084C728.219 53.168 729.508 53.6978 731.101 53.6978C732.577 53.6978 733.855 53.3696 734.936 52.7134V54.3848ZM746.625 41.8545H742.38V55H740.657V41.8545H736.422V40.2959H746.625V41.8545ZM760.324 55H758.417L756.858 50.8779H750.624L749.158 55H747.24L752.88 40.2959H754.664L760.324 55ZM756.294 49.3296L753.987 43.0645C753.912 42.8594 753.837 42.5312 753.762 42.0801H753.721C753.652 42.4971 753.574 42.8252 753.485 43.0645L751.198 49.3296H756.294ZM771.193 41.8545H766.948V55H765.226V41.8545H760.991V40.2959H771.193V41.8545ZM773.511 55V40.2959H775.233V46.5303H778.022C779.485 46.5303 780.624 46.8857 781.437 47.5967C782.25 48.3008 782.657 49.3057 782.657 50.6113C782.657 51.9648 782.23 53.0347 781.375 53.8208C780.521 54.6069 779.355 55 777.879 55H773.511ZM775.233 48.0889V53.4414H777.653C778.672 53.4414 779.458 53.2021 780.012 52.7236C780.565 52.2451 780.842 51.5752 780.842 50.7139C780.842 48.9639 779.779 48.0889 777.653 48.0889H775.233ZM797.464 55H795.741V44.377C795.741 43.4199 795.775 42.7466 795.844 42.3569H795.782C795.652 42.6919 795.495 42.9995 795.311 43.2798L787.743 55H785.61V40.2959H787.333V50.6523C787.333 51.7598 787.306 52.481 787.251 52.8159H787.292C787.442 52.5151 787.634 52.187 787.866 51.8315L795.249 40.2959H797.464V55Z" fill="#2D2D2D"/>
<path d="M847.182 55H845.459V41.8545H841.378C840.906 45.5596 840.534 48.1777 840.26 49.709C839.987 51.2402 839.71 52.3682 839.43 53.0928C839.149 53.8174 838.77 54.3574 838.292 54.7129C837.813 55.0615 837.239 55.2358 836.569 55.2358C836.029 55.2358 835.561 55.1641 835.164 55.0205V53.4004C835.513 53.5986 835.899 53.6978 836.323 53.6978C836.747 53.6978 837.143 53.4448 837.512 52.939C837.888 52.4331 838.268 51.1172 838.65 48.9912C839.04 46.8652 839.471 43.9668 839.942 40.2959H847.182V55ZM861.168 40.2959L856.625 50.5601C855.819 52.3784 855.04 53.6157 854.288 54.272C853.536 54.9282 852.715 55.2563 851.827 55.2563C851.095 55.2563 850.483 55.1504 849.991 54.9385V53.1953C850.579 53.5439 851.146 53.7183 851.693 53.7183C852.247 53.7183 852.756 53.5063 853.221 53.0825C853.686 52.6519 854.188 51.8965 854.729 50.8164L849.745 40.2959H851.704L855.231 48.1504C855.292 48.2803 855.419 48.5981 855.61 49.104H855.631C855.651 49.0425 855.792 48.7109 856.051 48.1094L859.322 40.2959H861.168ZM872.868 55H871.145V48.3862C869.58 49.2134 868.124 49.627 866.777 49.627C865.492 49.627 864.497 49.2954 863.793 48.6323C863.096 47.9624 862.747 47.0259 862.747 45.8228V40.2959H864.47V45.7407C864.47 47.3198 865.311 48.1094 866.992 48.1094C868.209 48.1094 869.593 47.7334 871.145 46.9814V40.2959H872.868V55ZM892.904 55H876.856V40.2959H878.579V53.4414H884.024V40.2959H885.736V53.4414H891.181V40.2959H892.904V55ZM904.583 55H896.79V40.2959H904.255V41.8545H898.513V46.7456H903.824V48.2939H898.513V53.4414H904.583V55ZM915.206 55H907.413V40.2959H914.878V41.8545H909.136V46.7456H914.447V48.2939H909.136V53.4414H915.206V55Z" fill="#2D2D2D"/>
<path d="M963.981 55H962.259V48.2939H954.65V55H952.928V40.2959H954.65V46.7456H962.259V40.2959H963.981V55ZM973.764 55.2461C971.679 55.2461 970.007 54.5591 968.75 53.1851C967.499 51.811 966.873 50.0234 966.873 47.8223C966.873 45.457 967.512 43.5703 968.791 42.1621C970.069 40.7539 971.809 40.0498 974.01 40.0498C976.04 40.0498 977.674 40.7334 978.911 42.1006C980.155 43.4678 980.777 45.2554 980.777 47.4634C980.777 49.8628 980.142 51.7598 978.87 53.1543C977.599 54.5488 975.896 55.2461 973.764 55.2461ZM973.887 41.6084C972.342 41.6084 971.087 42.1655 970.124 43.2798C969.16 44.394 968.678 45.8569 968.678 47.6685C968.678 49.48 969.146 50.9395 970.083 52.0469C971.026 53.1475 972.253 53.6978 973.764 53.6978C975.377 53.6978 976.648 53.1714 977.578 52.1187C978.508 51.0659 978.973 49.5928 978.973 47.6992C978.973 45.7578 978.521 44.2573 977.619 43.1978C976.717 42.1382 975.473 41.6084 973.887 41.6084ZM983.669 55V40.2959H987.853C989.124 40.2959 990.132 40.6069 990.877 41.229C991.623 41.8511 991.995 42.6611 991.995 43.6592C991.995 44.4932 991.77 45.2178 991.318 45.833C990.867 46.4482 990.245 46.8857 989.452 47.1455V47.1865C990.443 47.3027 991.236 47.6787 991.831 48.3145C992.426 48.9434 992.723 49.7637 992.723 50.7754C992.723 52.0332 992.272 53.0518 991.37 53.8311C990.467 54.6104 989.329 55 987.955 55H983.669ZM985.392 41.8545V46.6021H987.155C988.099 46.6021 988.84 46.3765 989.38 45.9253C989.92 45.4673 990.19 44.8247 990.19 43.9976C990.19 42.5688 989.25 41.8545 987.371 41.8545H985.392ZM985.392 48.1504V53.4414H987.729C988.741 53.4414 989.524 53.2021 990.078 52.7236C990.638 52.2451 990.918 51.5889 990.918 50.7549C990.918 49.0186 989.736 48.1504 987.371 48.1504H985.392ZM1001.63 55.2461C999.549 55.2461 997.877 54.5591 996.62 53.1851C995.369 51.811 994.743 50.0234 994.743 47.8223C994.743 45.457 995.382 43.5703 996.661 42.1621C997.939 40.7539 999.679 40.0498 1001.88 40.0498C1003.91 40.0498 1005.54 40.7334 1006.78 42.1006C1008.03 43.4678 1008.65 45.2554 1008.65 47.4634C1008.65 49.8628 1008.01 51.7598 1006.74 53.1543C1005.47 54.5488 1003.77 55.2461 1001.63 55.2461ZM1001.76 41.6084C1000.21 41.6084 998.958 42.1655 997.994 43.2798C997.03 44.394 996.548 45.8569 996.548 47.6685C996.548 49.48 997.016 50.9395 997.953 52.0469C998.896 53.1475 1000.12 53.6978 1001.63 53.6978C1003.25 53.6978 1004.52 53.1714 1005.45 52.1187C1006.38 51.0659 1006.84 49.5928 1006.84 47.6992C1006.84 45.7578 1006.39 44.2573 1005.49 43.1978C1004.59 42.1382 1003.34 41.6084 1001.76 41.6084ZM1021.55 54.3848C1020.46 54.959 1019.11 55.2461 1017.49 55.2461C1015.39 55.2461 1013.72 54.5728 1012.46 53.2261C1011.2 51.8794 1010.58 50.1123 1010.58 47.9248C1010.58 45.5732 1011.28 43.6729 1012.7 42.2236C1014.11 40.7744 1015.91 40.0498 1018.08 40.0498C1019.48 40.0498 1020.63 40.2515 1021.55 40.6548V42.4902C1020.49 41.9023 1019.33 41.6084 1018.06 41.6084C1016.37 41.6084 1015 42.1724 1013.95 43.3003C1012.9 44.4282 1012.38 45.9355 1012.38 47.8223C1012.38 49.6133 1012.87 51.042 1013.85 52.1084C1014.83 53.168 1016.12 53.6978 1017.71 53.6978C1019.19 53.6978 1020.47 53.3696 1021.55 52.7134V54.3848ZM1033.24 41.8545H1028.99V55H1027.27V41.8545H1023.03V40.2959H1033.24V41.8545ZM1047.41 55H1045.68V44.377C1045.68 43.4199 1045.72 42.7466 1045.79 42.3569H1045.73C1045.6 42.6919 1045.44 42.9995 1045.25 43.2798L1037.69 55H1035.55V40.2959H1037.28V50.6523C1037.28 51.7598 1037.25 52.481 1037.19 52.8159H1037.24C1037.39 52.5151 1037.58 52.187 1037.81 51.8315L1045.19 40.2959H1047.41V55Z" fill="#2D2D2D"/>
<path d="M1094.62 41.8545H1090.38V55H1088.66V41.8545H1084.42V40.2959H1094.62V41.8545ZM1104.73 55H1096.94V40.2959H1104.41V41.8545H1098.66V46.7456H1103.97V48.2939H1098.66V53.4414H1104.73V55ZM1117.57 54.3848C1116.48 54.959 1115.13 55.2461 1113.51 55.2461C1111.42 55.2461 1109.74 54.5728 1108.49 53.2261C1107.23 51.8794 1106.6 50.1123 1106.6 47.9248C1106.6 45.5732 1107.31 43.6729 1108.72 42.2236C1110.14 40.7744 1111.93 40.0498 1114.11 40.0498C1115.5 40.0498 1116.66 40.2515 1117.57 40.6548V42.4902C1116.52 41.9023 1115.36 41.6084 1114.08 41.6084C1112.4 41.6084 1111.03 42.1724 1109.97 43.3003C1108.93 44.4282 1108.4 45.9355 1108.4 47.8223C1108.4 49.6133 1108.89 51.042 1109.87 52.1084C1110.85 53.168 1112.14 53.6978 1113.74 53.6978C1115.21 53.6978 1116.49 53.3696 1117.57 52.7134V54.3848ZM1129.26 41.8545H1125.02V55H1123.29V41.8545H1119.06V40.2959H1129.26V41.8545ZM1144.16 55H1142.44V40.2959H1144.16V55ZM1131.58 55V40.2959H1133.3V46.5303H1136.09C1137.55 46.5303 1138.69 46.8857 1139.5 47.5967C1140.32 48.3008 1140.72 49.3057 1140.72 50.6113C1140.72 51.9648 1140.3 53.0347 1139.44 53.8208C1138.59 54.6069 1137.42 55 1135.95 55H1131.58ZM1133.3 48.0889V53.4414H1135.72C1136.74 53.4414 1137.53 53.2021 1138.08 52.7236C1138.63 52.2451 1138.91 51.5752 1138.91 50.7139C1138.91 48.9639 1137.85 48.0889 1135.72 48.0889H1133.3Z" fill="#2D2D2D"/>
<path d="M180.224 66V28.9091H188.066V44.2127H203.985V28.9091H211.809V66H203.985V50.6783H188.066V66H180.224ZM252.359 47.4545C252.359 51.4993 251.592 54.9403 250.059 57.7777C248.538 60.6151 246.461 62.7823 243.829 64.2795C241.209 65.7646 238.263 66.5071 234.991 66.5071C231.695 66.5071 228.737 65.7585 226.116 64.2614C223.496 62.7642 221.426 60.5969 219.904 57.7596C218.383 54.9222 217.623 51.4872 217.623 47.4545C217.623 43.4098 218.383 39.9688 219.904 37.1314C221.426 34.294 223.496 32.1328 226.116 30.6477C228.737 29.1506 231.695 28.402 234.991 28.402C238.263 28.402 241.209 29.1506 243.829 30.6477C246.461 32.1328 248.538 34.294 250.059 37.1314C251.592 39.9688 252.359 43.4098 252.359 47.4545ZM244.408 47.4545C244.408 44.8345 244.016 42.625 243.231 40.826C242.458 39.027 241.366 37.6626 239.953 36.733C238.54 35.8033 236.886 35.3384 234.991 35.3384C233.095 35.3384 231.441 35.8033 230.028 36.733C228.616 37.6626 227.517 39.027 226.732 40.826C225.96 42.625 225.573 44.8345 225.573 47.4545C225.573 50.0746 225.96 52.2841 226.732 54.0831C227.517 55.8821 228.616 57.2464 230.028 58.1761C231.441 59.1058 233.095 59.5707 234.991 59.5707C236.886 59.5707 238.54 59.1058 239.953 58.1761C241.366 57.2464 242.458 55.8821 243.231 54.0831C244.016 52.2841 244.408 50.0746 244.408 47.4545ZM284.678 28.9091V66H277.071V28.9091H284.678ZM254.668 66L266.295 46.4403L255.157 28.9091H264.81L273.141 44.1765H288.807L296.921 28.9091H306.537L295.671 46.386L307.081 66H297.718L289.876 51.4208H272L263.959 66H254.668Z" fill="#FF8A4F"/>
<rect x="1176" y="36.6353" width="21.8578" height="20.9471" rx="4" transform="rotate(-9.57367 1176 36.6353)" stroke="#2D2D2D" stroke-width="2"/>
<circle cx="1188.59" cy="45.5942" r="1.82148" transform="rotate(-9.57367 1188.59 45.5942)" fill="#2D2D2D"/>
<circle cx="1182.3" cy="41.1148" r="1.82148" transform="rotate(-9.57367 1182.3 41.1148)" fill="#2D2D2D"/>
<circle cx="1193.07" cy="39.2969" r="1.82148" transform="rotate(-9.57367 1193.07 39.2969)" fill="#2D2D2D"/>
<circle cx="1194.89" cy="50.0737" r="1.82148" transform="rotate(-9.57367 1194.89 50.0737)" fill="#2D2D2D"/>
<circle cx="1184.11" cy="51.8911" r="1.82148" transform="rotate(-9.57367 1184.11 51.8911)" fill="#2D2D2D"/>
<rect x="1597" y="35" width="23" height="23" rx="6" fill="#111111"/>
<mask id="path-15-inside-1_341_49" fill="white">
<path d="M1606.5 52C1603.3 52 1600.83 45.3333 1600.5 42H1603.5C1603.5 45.2 1605.5 47.6667 1606.5 48.5V42H1607H1609.5V42.5V45.5H1610.5L1613 42H1616L1613 47.5L1616.5 52H1613L1610.5 48.5H1609.5V52H1606.5Z"/>
</mask>
<path d="M1606.5 52C1603.3 52 1600.83 45.3333 1600.5 42H1603.5C1603.5 45.2 1605.5 47.6667 1606.5 48.5V42H1607H1609.5V42.5V45.5H1610.5L1613 42H1616L1613 47.5L1616.5 52H1613L1610.5 48.5H1609.5V52H1606.5Z" fill="white"/>
<path d="M1600.5 42V41H1599.4L1599.5 42.0995L1600.5 42ZM1609.5 52V53H1610.5V52H1609.5ZM1609.5 48.5V47.5H1608.5V48.5H1609.5ZM1610.5 48.5L1611.31 47.9188L1611.01 47.5H1610.5V48.5ZM1613 52L1612.19 52.5812L1612.49 53H1613V52ZM1616.5 52V53H1618.54L1617.29 51.3861L1616.5 52ZM1613 47.5L1612.12 47.0211L1611.81 47.5966L1612.21 48.1139L1613 47.5ZM1616 42L1616.88 42.4789L1617.68 41H1616V42ZM1613 42V41H1612.49L1612.19 41.4188L1613 42ZM1610.5 45.5V46.5H1611.01L1611.31 46.0812L1610.5 45.5ZM1609.5 45.5H1608.5V46.5H1609.5V45.5ZM1609.5 42H1610.5V41H1609.5V42ZM1606.5 42V41H1605.5V42H1606.5ZM1606.5 48.5L1605.86 49.2682L1607.5 50.635V48.5H1606.5ZM1603.5 42H1604.5V41H1603.5V42ZM1600.5 42L1599.5 42.0995C1599.68 43.8981 1600.42 46.5173 1601.53 48.7029C1602.09 49.7979 1602.77 50.838 1603.56 51.6182C1604.34 52.3937 1605.34 53 1606.5 53V52V51C1606.06 51 1605.55 50.773 1604.96 50.1943C1604.38 49.6203 1603.82 48.7854 1603.32 47.7971C1602.31 45.816 1601.65 43.4352 1601.5 41.9005L1600.5 42ZM1606.5 52V53H1609.5V52V51H1606.5V52ZM1609.5 52H1610.5V48.5H1609.5H1608.5V52H1609.5ZM1609.5 48.5V49.5H1610.5V48.5V47.5H1609.5V48.5ZM1610.5 48.5L1609.69 49.0812L1612.19 52.5812L1613 52L1613.81 51.4188L1611.31 47.9188L1610.5 48.5ZM1613 52V53H1616.5V52V51H1613V52ZM1616.5 52L1617.29 51.3861L1613.79 46.8861L1613 47.5L1612.21 48.1139L1615.71 52.6139L1616.5 52ZM1613 47.5L1613.88 47.9789L1616.88 42.4789L1616 42L1615.12 41.5211L1612.12 47.0211L1613 47.5ZM1616 42V41H1613V42V43H1616V42ZM1613 42L1612.19 41.4188L1609.69 44.9188L1610.5 45.5L1611.31 46.0812L1613.81 42.5812L1613 42ZM1610.5 45.5V44.5H1609.5V45.5V46.5H1610.5V45.5ZM1609.5 45.5H1610.5V42.5H1609.5H1608.5V45.5H1609.5ZM1609.5 42.5H1610.5V42H1609.5H1608.5V42.5H1609.5ZM1609.5 42V41H1607V42V43H1609.5V42ZM1607 42V41H1606.5V42V43H1607V42ZM1606.5 42H1605.5V48.5H1606.5H1607.5V42H1606.5ZM1606.5 48.5L1607.14 47.7318C1606.28 47.0169 1604.5 44.8071 1604.5 42H1603.5H1602.5C1602.5 45.5929 1604.72 48.3164 1605.86 49.2682L1606.5 48.5ZM1603.5 42V41H1600.5V42V43H1603.5V42Z" fill="white" mask="url(#path-15-inside-1_341_49)"/>
<circle cx="1726.5" cy="46.5" r="7.5" stroke="black" stroke-width="3"/>
<path d="M1734.59 57.4142C1735.37 58.1953 1736.63 58.1953 1737.41 57.4142C1738.2 56.6332 1738.2 55.3668 1737.41 54.5858L1734.59 57.4142ZM1731 51L1729.59 52.4142L1734.59 57.4142L1736 56L1737.41 54.5858L1732.41 49.5858L1731 51Z" fill="black"/>
<rect x="10" y="1" width="1920" height="9" fill="#1980EF"/>
</g>
<defs>
<filter id="filter0_d_341_49" x="0.4" y="0.4" width="1939.2" height="103.2" filterUnits="userSpaceOnUse" color-interpolation-filters="sRGB">
<feFlood flood-opacity="0" result="BackgroundImageFix"/>
<feColorMatrix in="SourceAlpha" type="matrix" values="0 0 0 0 0 0 0 0 0 0 0 0 0 0 0 0 0 0 127 0" result="hardAlpha"/>
<feOffset dy="9"/>
<feGaussianBlur stdDeviation="4.8"/>
<feComposite in2="hardAlpha" operator="out"/>
<feColorMatrix type="matrix" values="0 0 0 0 0 0 0 0 0 0 0 0 0 0 0 0 0 0 0.25 0"/>
<feBlend mode="normal" in2="BackgroundImageFix" result="effect1_dropShadow_341_49"/>
<feBlend mode="normal" in="SourceGraphic" in2="effect1_dropShadow_341_49" result="shape"/>
</filter>
</defs>
</svg>
