<svg width="131" height="39" viewBox="0 0 131 39" fill="none" xmlns="http://www.w3.org/2000/svg">
<path d="M32.3599 38H23.9751V22.8867H8.60303V38H0.244141V0.889648H8.60303V15.6924H23.9751V0.889648H32.3599V38ZM57.6166 38.647C52.3028 38.647 47.9724 36.9217 44.6254 33.4712C41.2784 30.0034 39.6049 25.4919 39.6049 19.9365C39.6049 14.0706 41.3043 9.32617 44.7031 5.70312C48.1018 2.08008 52.6048 0.268555 58.2119 0.268555C63.5084 0.268555 67.7871 2.00244 71.0478 5.47021C74.3258 8.93799 75.9648 13.5099 75.9648 19.186C75.9648 25.0174 74.2654 29.7188 70.8666 33.29C67.4851 36.8613 63.0685 38.647 57.6166 38.647ZM57.9789 7.46289C55.046 7.46289 52.7169 8.56706 50.9916 10.7754C49.2664 12.9665 48.4038 15.8735 48.4038 19.4966C48.4038 23.1714 49.2664 26.0785 50.9916 28.2178C52.7169 30.3571 54.977 31.4268 57.7719 31.4268C60.6531 31.4268 62.9391 30.3916 64.6298 28.3213C66.3206 26.2337 67.166 23.3439 67.166 19.6519C67.166 15.8045 66.3465 12.8112 64.7075 10.6719C63.0685 8.53255 60.8256 7.46289 57.9789 7.46289ZM130.724 38H120.32L109.373 22.0068C109.08 21.5928 108.744 20.9717 108.364 20.1436H108.261V38H100.083V20.1436H99.9794C99.8069 20.5404 99.4704 21.1615 98.9701 22.0068L87.9974 38H77.62L91.7758 18.6426L78.681 0.889648H88.6444L98.9701 16.417C99.4014 17.0726 99.7378 17.6419 99.9794 18.125H100.083V0.889648H108.261V18.125H108.364C108.606 17.6247 108.942 17.0553 109.373 16.417L119.699 0.889648H129.662L116.568 18.6426L130.724 38Z" fill="#FF8A4F"/>
</svg>
